<?xml version="1.0" standalone="no"?>
<!DOCTYPE svg PUBLIC "-//W3C//DTD SVG 20010904//EN"
 "http://www.w3.org/TR/2001/REC-SVG-20010904/DTD/svg10.dtd">
<svg version="1.0" xmlns="http://www.w3.org/2000/svg"
 width="140.000000pt" height="144.000000pt" viewBox="0 0 140.000000 144.000000"
 preserveAspectRatio="xMidYMid meet">

<g transform="translate(0.000000,144.000000) scale(0.100000,-0.100000)"
fill="#000000" stroke="none">
<path d="M831 1342 c-8 -16 -27 -20 -103 -25 -112 -8 -135 -14 -141 -36 -2 -9
-13 -17 -25 -18 -12 -1 -48 -9 -82 -19 -49 -14 -59 -20 -55 -34 7 -21 -5 -30
-75 -60 -61 -25 -72 -36 -64 -63 4 -12 -12 -36 -53 -78 -71 -74 -77 -84 -58
-99 12 -10 10 -17 -13 -49 -15 -21 -36 -57 -47 -81 l-19 -43 21 -14 22 -15
-19 -36 c-24 -45 -26 -92 -4 -92 8 0 12 -5 9 -10 -3 -6 -10 -33 -14 -61 -8
-46 -6 -52 14 -65 24 -16 25 -23 7 -65 -5 -14 -12 -41 -14 -60 -2 -28 0 -33
15 -31 26 4 31 -22 19 -110 -7 -44 -10 -84 -7 -88 2 -4 51 3 107 16 123 28
118 28 118 9 0 -17 22 -20 48 -5 9 5 40 18 68 29 49 19 51 19 62 1 11 -18 14
-17 84 10 62 24 75 26 84 14 10 -12 25 -5 94 41 72 50 83 54 94 40 10 -14 20
-8 81 49 52 49 76 65 95 63 22 -2 30 8 62 73 21 41 38 85 38 98 0 21 3 23 30
17 28 -6 30 -5 32 27 2 46 4 61 11 78 4 8 8 33 9 55 3 36 6 40 27 37 13 -2 21
0 18 5 -3 4 -8 47 -12 95 -7 85 -7 87 14 81 18 -4 21 -1 21 23 0 33 -21 138
-40 201 -20 65 -77 133 -140 164 -71 36 -133 49 -230 49 -67 0 -81 -3 -89 -18z"/>
</g>
</svg>
